<?xml version="1.0" encoding="UTF-8"?>
<svg width="2304px" height="2108px" viewBox="0 0 2304 2108" version="1.1" xmlns="http://www.w3.org/2000/svg" xmlns:xlink="http://www.w3.org/1999/xlink">
    <!-- Generator: Sketch 50.2 (55047) - http://www.bohemiancoding.com/sketch -->
    <title>Group 4</title>
    <desc>Created with Sketch.</desc>
    <defs>
        <circle id="path-1" cx="1172" cy="1172" r="1172"></circle>
    </defs>
    <g id="Page-1" stroke="none" stroke-width="1" fill="none" fill-rule="evenodd">
        <g id="Group-4" transform="translate(0.000000, -158.000000)">
            <g id="bird">
                <mask id="mask-2" fill="white">
                    <use xlink:href="#path-1"></use>
                </mask>
                <g id="Mask"></g>
                <g mask="url(#mask-2)" id="Group">
                    <g transform="translate(-766.000000, -400.000000)">
                        <g transform="translate(1639.000000, 1503.500000) scale(-1, 1) rotate(-180.000000) translate(-1639.000000, -1503.500000) ">
                            <path d="M1496.56823,2609.51881 C1478.40208,2601.8326 1475.60729,2589.95392 1490.97865,2584.36395 C1496.56823,2582.26771 1504.9526,2567.59404 1509.84349,2552.92038 C1514.03568,2537.54796 1521.72135,2522.17555 1527.31094,2517.98307 C1538.4901,2508.20063 1539.8875,2469.76959 1528.70833,2469.76959 C1524.51615,2469.76959 1504.9526,2487.93699 1485.38906,2509.59812 C1396.65443,2608.12132 1394.55833,2609.51881 1355.43125,2609.51881 C1314.90677,2609.51881 1305.8237,2599.73636 1321.89375,2573.18401 C1327.48333,2564.10031 1334.47031,2548.02915 1336.56641,2536.84922 C1339.3612,2524.97053 1348.44427,2506.10439 1356.82865,2494.92445 C1365.21302,2483.04577 1375.69349,2463.48088 1379.88568,2451.60219 L1387.57135,2429.24232 L1355.43125,2443.21724 C1337.9638,2450.90345 1318.40026,2461.38464 1312.11198,2466.97461 C1296.74062,2480.94953 1294.64453,2479.55204 1267.39531,2452.30094 C1238.7487,2424.3511 1238.05,2418.76113 1256.91484,2395.00376 C1264.60052,2385.22132 1270.8888,2371.94514 1270.8888,2365.65643 C1270.8888,2359.36771 1284.86276,2325.8279 1303.02891,2292.28809 C1320.49635,2258.04953 1333.07292,2225.90721 1330.97682,2221.01599 C1323.98984,2203.54734 1291.84974,2209.83605 1152.11016,2257.35078 C1134.64271,2262.94075 1099.00911,2273.42194 1071.7599,2280.4094 C1045.20937,2288.09561 1013.76797,2297.17931 1001.8901,2301.37179 C964.160417,2314.64796 911.758073,2330.71912 865.64401,2343.9953 C805.55599,2361.46395 758.044531,2376.83636 715.423958,2392.90752 C696.559115,2400.59373 669.309896,2408.97868 656.034635,2411.07492 C642.759375,2413.86991 620.401042,2421.55611 607.125781,2427.84483 C593.850521,2434.13354 567.3,2443.91599 547.736458,2448.10846 C528.871615,2452.99969 507.910677,2461.38464 502.321094,2466.27586 C492.539323,2474.66082 485.552344,2473.96207 450.617448,2459.98715 C398.913802,2439.02476 395.420312,2434.83229 402.407292,2406.1837 C410.092969,2378.9326 446.42526,2354.47649 491.840625,2346.79028 C507.211979,2344.69404 533.063802,2337.00784 549.133854,2330.02038 C565.902604,2323.03292 593.850521,2314.64796 612.016667,2311.85298 C651.14375,2306.26301 672.104687,2297.17931 666.515104,2287.39687 C659.528125,2276.91567 556.120833,2280.4094 498.128906,2292.98683 C452.014844,2302.76928 439.438281,2303.46803 401.708594,2295.08307 C378.651562,2290.19185 346.511458,2283.90313 331.140104,2281.8069 C301.096094,2276.91567 288.519531,2256.65204 311.576562,2248.26708 C318.563542,2246.17085 330.441406,2237.08715 338.127083,2228.70219 C353.498437,2211.23354 430.355208,2186.07868 486.251042,2179.09122 C534.461198,2173.50125 565.203906,2162.32132 565.203906,2151.84013 C565.203906,2137.8652 546.339062,2133.67273 459.001823,2130.87774 C363.280208,2128.08276 338.825781,2121.79404 336.03099,2100.13292 C334.633594,2091.04922 336.03099,2081.26677 339.524479,2077.77304 C342.319271,2074.97806 386.33724,2067.29185 435.944792,2061.00313 C534.461198,2049.12445 579.177865,2039.34201 579.177865,2030.25831 C579.177865,2019.77712 556.819531,2014.18715 500.225,2010.69342 C470.18099,2008.59718 444.329167,2003.70596 442.233073,2000.91097 C440.136979,1997.41724 450.617448,1983.44232 464.591406,1968.76865 C489.744531,1944.31254 492.539323,1942.91505 548.435156,1940.12006 C621.798437,1935.92759 626.689323,1931.73511 615.510156,1876.53417 C604.33099,1822.73072 604.33099,1820.63448 625.291927,1812.94828 C635.772396,1808.7558 651.842448,1798.97335 662.322917,1791.28715 C672.104687,1783.60094 700.751302,1761.93981 725.205729,1743.07367 C749.660156,1723.50878 772.01849,1708.13636 774.813281,1708.13636 C781.101562,1708.13636 860.753125,1644.55047 884.508854,1621.49185 C893.591927,1612.40815 931.321615,1589.34953 968.352604,1570.48339 C1066.86901,1520.87241 1122.76484,1465.67147 1223.37734,1317.5373 C1232.46042,1304.95987 1252.02396,1279.80502 1268.09401,1261.63762 C1283.46536,1244.16897 1316.30417,1204.34044 1340.75859,1173.59561 C1365.21302,1142.85078 1395.95573,1106.51599 1409.23099,1092.54107 C1442.06979,1056.90502 1508.44609,966.766771 1508.44609,956.984326 C1508.44609,952.79185 1516.13177,938.816928 1525.91354,925.540752 C1557.35495,882.917241 1553.86146,876.628527 1468.62031,806.753918 C1425.30104,771.117868 1423.20495,770.419122 1343.55339,757.142947 C1298.83672,750.155486 1229.66562,741.770533 1189.83984,739.674295 C1149.31536,736.87931 1115.07917,731.988088 1112.28437,728.494357 C1110.18828,724.301881 1111.58568,714.519436 1115.77786,706.833229 C1126.95703,684.473354 1138.1362,622.284953 1138.1362,586.648903 C1138.1362,553.109091 1140.23229,550.314107 1221.28125,448.995925 C1270.1901,387.50627 1284.86276,384.711285 1340.75859,422.443574 C1350.54036,429.431034 1375.69349,446.20094 1396.65443,460.175862 C1417.61536,474.150784 1442.76849,490.92069 1452.55026,497.209404 C1462.33203,503.498119 1491.67734,523.063009 1517.52917,539.832915 L1565.04062,571.276489 L1643.99349,566.385266 C1687.31276,563.590282 1734.12552,558.69906 1746.70208,555.205329 C1759.97734,551.012853 1798.40573,546.12163 1831.94323,543.326646 C1888.53776,539.134169 1894.12734,540.531661 1907.4026,553.807837 C1934.65182,583.155172 1955.61276,565.68652 1955.61276,514.678056 C1955.61276,481.836991 1963.99714,473.452038 2008.7138,462.2721 C2035.96302,455.284639 2045.74479,448.297179 2063.91094,422.443574 C2075.7888,404.974922 2090.46146,391 2095.35234,391 C2100.94193,391 2108.6276,403.577429 2112.81979,420.347335 C2126.79375,476.247022 2163.12604,495.811912 2182.68958,457.380878 C2191.07396,441.309718 2198.06094,436.418495 2214.13099,436.418495 C2239.28411,436.418495 2246.96979,447.598433 2232.29714,463.669592 C2226.70755,469.958307 2219.02188,486.728213 2216.22708,500.703135 C2212.73359,514.678056 2200.15703,537.037931 2187.58047,551.012853 C2165.92083,575.468966 2163.12604,576.167712 2116.31328,576.167712 C2076.4875,576.167712 2064.60964,578.962696 2053.43047,590.142633 C2014.30339,629.272414 2049.93698,643.946082 2198.75964,649.53605 C2254.65547,652.331034 2347.58229,678.883386 2358.06276,695.653292 C2360.15885,699.147022 2366.44714,701.942006 2372.73542,701.942006 C2383.91458,701.942006 2409.06771,716.615674 2502.69323,776.707837 C2528.54505,792.778997 2570.46693,820.72884 2597.01745,836.8 C2622.86927,853.569906 2661.99635,879.423511 2685.05339,894.795925 C2707.41172,909.469592 2732.56484,926.239498 2740.94922,930.431975 C2762.60885,943.70815 2803.83203,941.611912 2821.99818,926.938245 C2836.67083,915.059561 2837.36953,910.867085 2831.77995,879.423511 C2826.88906,852.87116 2828.28646,837.498746 2836.67083,811.645141 C2854.83698,758.540439 2860.42656,757.142947 2891.86797,792.778997 C2917.71979,822.825078 2919.11719,826.318809 2919.81589,871.737304 C2919.81589,919.252038 2926.10417,934.624451 2963.13516,977.946708 C2972.21823,988.4279 2975.01302,1007.29404 2976.41042,1057.60376 L2977.80781,1123.28589 L2943.57161,1161.01818 C2919.11719,1187.57053 2892.56667,1206.43668 2849.94609,1227.39906 C2798.24245,1253.25266 2782.87109,1257.44514 2735.35964,1259.54138 C2703.21953,1261.63762 2649.41979,1257.44514 2604.70312,1250.45768 C2478.2388,1230.19404 2440.50911,1240.67524 2424.43906,1302.86364 C2418.84948,1326.621 2403.47813,1439.11912 2386.01068,1596.33699 C2376.22891,1682.28276 2381.81849,1666.91034 2295.17995,1830.41693 C2280.50729,1856.96928 2257.45026,1891.90658 2243.4763,1907.97774 C2229.50234,1924.0489 2206.44531,1952.69749 2193.17005,1970.86489 C2179.89479,1989.73103 2164.52344,2009.29592 2159.63255,2015.58464 C2154.04297,2021.17461 2118.40937,2068.68934 2079.98099,2120.39655 C1988.45156,2242.67712 1970.28542,2263.6395 1926.26745,2296.48056 C1888.53776,2325.12915 1821.46276,2380.33009 1801.89922,2399.89498 C1795.61094,2406.1837 1778.14349,2420.15862 1763.47083,2431.33856 C1725.74115,2459.2884 1613.25078,2552.22163 1562.94453,2597.64013 C1539.8875,2617.20502 1523.11875,2620 1496.56823,2609.51881 Z" id="Shape" fill="#327CCB" fill-rule="nonzero" transform="translate(1638.744010, 1503.262539) rotate(20.000000) translate(-1638.744010, -1503.262539) "></path>
                        </g>
                    </g>
                </g>
            </g>
            <rect id="Rectangle-13" fill="#FFFFFF" x="692" y="975" width="906" height="89"></rect>
            <rect id="Rectangle-13" fill="#FFFFFF" x="692" y="1159" width="906" height="89"></rect>
            <path d="M801.778069,725.460762 C956.877926,725.460762 1069.42524,725.460762 1139.42,725.460762 C1244.41214,725.460762 1526.43877,792.804691 1526.43877,1113.08424 C1526.43877,1433.36379 1225.7229,1500.70772 1139.42,1500.70772 C1081.88473,1500.70772 969.337423,1500.70772 801.778069,1500.70772 L801.778069,725.460762 Z M889.333878,805.28159 L889.333878,1419.65138 C919.763358,1419.65138 994.572544,1419.65138 1113.76144,1419.65138 C1292.54478,1419.65138 1433.66251,1296.36153 1433.66251,1112.46649 C1433.66251,928.571445 1300.94102,805.28159 1113.76144,805.28159 C988.975052,805.28159 914.165865,805.28159 889.333878,805.28159 Z" id="Combined-Shape" fill="#FFFFFF"></path>
        </g>
    </g>
</svg>