<?xml version="1.0" encoding="UTF-8"?>
<svg width="1173px" height="311px" viewBox="0 0 1173 311" version="1.1" xmlns="http://www.w3.org/2000/svg" xmlns:xlink="http://www.w3.org/1999/xlink">
    <!-- Generator: Sketch 50.2 (55047) - http://www.bohemiancoding.com/sketch -->
    <title>Group 2</title>
    <desc>Created with Sketch.</desc>
    <defs></defs>
    <g id="Page-1" stroke="none" stroke-width="1" fill="none" fill-rule="evenodd">
        <g id="Group-2" transform="translate(-18.000000, -72.000000)">
            <g id="dmm-logo" fill="#327CCB" fill-rule="nonzero">
                <g id="Group" transform="translate(235.900000, 216.000000) scale(-1, 1) rotate(-180.000000) translate(-235.900000, -216.000000) translate(0.900000, 0.500000)">
                    <path d="M214.4,373.5 C211.8,372.4 211.4,370.7 213.6,369.9 C214.4,369.6 215.6,367.5 216.3,365.4 C216.9,363.2 218,361 218.8,360.4 C220.4,359 220.6,353.5 219,353.5 C218.4,353.5 215.6,356.1 212.8,359.2 C200.1,373.3 199.8,373.5 194.2,373.5 C188.4,373.5 187.1,372.1 189.4,368.3 C190.2,367 191.2,364.7 191.5,363.1 C191.9,361.4 193.2,358.7 194.4,357.1 C195.6,355.4 197.1,352.6 197.7,350.9 L198.8,347.7 L194.2,349.7 C191.7,350.8 188.9,352.3 188,353.1 C185.8,355.1 185.5,354.9 181.6,351 C177.5,347 177.4,346.2 180.1,342.8 C181.2,341.4 182.1,339.5 182.1,338.6 C182.1,337.7 184.1,332.9 186.7,328.1 C189.2,323.2 191,318.6 190.7,317.9 C189.7,315.4 185.1,316.3 165.1,323.1 C162.6,323.9 157.5,325.4 153.6,326.4 C149.8,327.5 145.3,328.8 143.6,329.4 C138.2,331.3 130.7,333.6 124.1,335.5 C115.5,338 108.7,340.2 102.6,342.5 C99.9,343.6 96,344.8 94.1,345.1 C92.2,345.5 89,346.6 87.1,347.5 C85.2,348.4 81.4,349.8 78.6,350.4 C75.9,351.1 72.9,352.3 72.1,353 C70.7,354.2 69.7,354.1 64.7,352.1 C57.3,349.1 56.8,348.5 57.8,344.4 C58.9,340.5 64.1,337 70.6,335.9 C72.8,335.6 76.5,334.5 78.8,333.5 C81.2,332.5 85.2,331.3 87.8,330.9 C93.4,330.1 96.4,328.8 95.6,327.4 C94.6,325.9 79.8,326.4 71.5,328.2 C64.9,329.6 63.1,329.7 57.7,328.5 C54.4,327.8 49.8,326.9 47.6,326.6 C43.3,325.9 41.5,323 44.8,321.8 C45.8,321.5 47.5,320.2 48.6,319 C50.8,316.5 61.8,312.9 69.8,311.9 C76.7,311.1 81.1,309.5 81.1,308 C81.1,306 78.4,305.4 65.9,305 C52.2,304.6 48.7,303.7 48.3,300.6 C48.1,299.3 48.3,297.9 48.8,297.4 C49.2,297 55.5,295.9 62.6,295 C76.7,293.3 83.1,291.9 83.1,290.6 C83.1,289.1 79.9,288.3 71.8,287.8 C67.5,287.5 63.8,286.8 63.5,286.4 C63.2,285.9 64.7,283.9 66.7,281.8 C70.3,278.3 70.7,278.1 78.7,277.7 C89.2,277.1 89.9,276.5 88.3,268.6 C86.7,260.9 86.7,260.6 89.7,259.5 C91.2,258.9 93.5,257.5 95,256.4 C96.4,255.3 100.5,252.2 104,249.5 C107.5,246.7 110.7,244.5 111.1,244.5 C112,244.5 123.4,235.4 126.8,232.1 C128.1,230.8 133.5,227.5 138.8,224.8 C152.9,217.7 160.9,209.8 175.3,188.6 C176.6,186.8 179.4,183.2 181.7,180.6 C183.9,178.1 188.6,172.4 192.1,168 C195.6,163.6 200,158.4 201.9,156.4 C206.6,151.3 216.1,138.4 216.1,137 C216.1,136.4 217.2,134.4 218.6,132.5 C223.1,126.4 222.6,125.5 210.4,115.5 C204.2,110.4 203.9,110.3 192.5,108.4 C186.1,107.4 176.2,106.2 170.5,105.9 C164.7,105.5 159.8,104.8 159.4,104.3 C159.1,103.7 159.3,102.3 159.9,101.2 C161.5,97.9999999 163.1,89.0999999 163.1,83.9999999 C163.1,79.1999999 163.4,78.7999999 175,64.2999999 C182,55.4999999 184.1,55.0999999 192.1,60.4999999 C193.5,61.4999999 197.1,63.8999999 200.1,65.8999999 C203.1,67.8999999 206.7,70.2999999 208.1,71.1999999 C209.5,72.0999999 213.7,74.8999999 217.4,77.2999999 L224.2,81.7999999 L235.5,81.0999999 C241.7,80.6999999 248.4,79.9999999 250.2,79.4999999 C252.1,78.8999999 257.6,78.1999999 262.4,77.7999999 C270.5,77.1999999 271.3,77.3999999 273.2,79.2999999 C277.1,83.4999999 280.1,80.9999999 280.1,73.6999999 C280.1,68.9999999 281.3,67.7999999 287.7,66.1999999 C291.6,65.1999999 293,64.1999999 295.6,60.4999999 C297.3,57.9999999 299.4,55.9999999 300.1,55.9999999 C300.9,55.9999999 302,57.7999999 302.6,60.1999999 C304.6,68.1999999 309.8,70.9999999 312.6,65.4999999 C313.8,63.1999999 314.8,62.4999999 317.1,62.4999999 C320.7,62.4999999 321.8,64.0999999 319.7,66.3999999 C318.9,67.2999999 317.8,69.6999999 317.4,71.6999999 C316.9,73.6999999 315.1,76.8999999 313.3,78.8999999 C310.2,82.3999999 309.8,82.4999999 303.1,82.4999999 C297.4,82.4999999 295.7,82.8999999 294.1,84.4999999 C288.5,90.0999999 293.6,92.1999999 314.9,92.9999999 C322.9,93.3999999 336.2,97.1999999 337.7,99.5999999 C338,100.1 338.9,100.5 339.8,100.5 C341.4,100.5 345,102.6 358.4,111.2 C362.1,113.5 368.1,117.5 371.9,119.8 C375.6,122.2 381.2,125.9 384.5,128.1 C387.7,130.2 391.3,132.6 392.5,133.2 C395.6,135.1 401.5,134.8 404.1,132.7 C406.2,131 406.3,130.4 405.5,125.9 C404.8,122.1 405,119.9 406.2,116.2 C408.8,108.6 409.6,108.4 414.1,113.5 C417.8,117.8 418,118.3 418.1,124.8 C418.1,131.6 419,133.8 424.3,140 C425.6,141.5 426,144.2 426.2,151.4 L426.4,160.8 L421.5,166.2 C418,170 414.2,172.7 408.1,175.7 C400.7,179.4 398.5,180 391.7,180.3 C387.1,180.6 379.4,180 373,179 C354.9,176.1 349.5,177.6 347.2,186.5 C346.4,189.9 344.2,206 341.7,228.5 C340.3,240.8 341.1,238.6 328.7,262 C326.6,265.8 323.3,270.8 321.3,273.1 C319.3,275.4 316,279.5 314.1,282.1 C312.2,284.8 310,287.6 309.3,288.5 C308.5,289.3 303.4,296.1 297.9,303.5 C284.8,321 282.2,324 275.9,328.7 C270.5,332.8 260.9,340.7 258.1,343.5 C257.2,344.4 254.7,346.4 252.6,348 C247.2,352 231.1,365.3 223.9,371.8 C220.6,374.6 218.2,375 214.4,373.5 Z" id="Shape" transform="translate(234.748677, 215.179789) rotate(20.000000) translate(-234.748677, -215.179789) "></path>
                </g>
            </g>
            <text id="DMM" font-family="Raleway-Light, Raleway" font-size="288" font-weight="300" fill="#000000">
                <tspan x="505.388" y="340">DMM</tspan>
            </text>
        </g>
    </g>
</svg>